<svg xmlns="http://www.w3.org/2000/svg" viewBox="0 0 512 512">
  <defs>
    <!-- Vibrant App Background -->
    <linearGradient id="bg" x1="0%" y1="0%" x2="0%" y2="100%">
      <stop offset="0%" stop-color="#FFDEE9" />
      <stop offset="100%" stop-color="#B5FFFC" />
    </linearGradient>
    
    <filter id="shadow" x="-20%" y="-20%" width="140%" height="140%">
      <feDropShadow dx="0" dy="8" stdDeviation="6" flood-color="#000" flood-opacity="0.15"/>
    </filter>
  </defs>
  
  <rect width="512" height="512" fill="url(#bg)" />

  <!-- Sun Graphic -->
  <circle cx="380" cy="160" r="80" fill="#FFF" opacity="0.6" />

  <!-- Pixel Clouds -->
  <g fill="#FFF" opacity="0.8">
    <rect x="60" y="120" width="40" height="20" rx="10" />
    <rect x="80" y="100" width="40" height="40" rx="10" />
    <rect x="110" y="110" width="30" height="30" rx="10" />
  </g>

  <!-- Ground Landscape -->
  <path d="M 0 380 Q 256 340 512 380 V 512 H 0 Z" fill="#74ebd5" opacity="0.3" />
  <path d="M 0 400 L 512 400 L 512 512 L 0 512 Z" fill="#9FACE6" opacity="0.9" />
  <path d="M 0 420 L 512 420 L 512 512 L 0 512 Z" fill="#74ebd5" />

  <!-- Minimal Pixel Cactus -->
  <g fill="#2D3436" transform="translate(360, 240) scale(16)">
     <rect x="3" y="0" width="3" height="11" />
     <rect x="0" y="4" width="3" height="2" />
     <rect x="0" y="1" width="2" height="4" />
     <rect x="6" y="3" width="3" height="2" />
     <rect x="7" y="0" width="2" height="4" />
  </g>

  <!-- Classic Pixel Dino but Cute -->
  <g transform="translate(80, 50) scale(16)" fill="#2D3436" filter="url(#shadow)">
    <rect x="13" y="1" width="1.03" height="1.03" />
<rect x="14" y="1" width="1.03" height="1.03" />
<rect x="15" y="1" width="1.03" height="1.03" />
<rect x="16" y="1" width="1.03" height="1.03" />
<rect x="17" y="1" width="1.03" height="1.03" />
<rect x="18" y="1" width="1.03" height="1.03" />
<rect x="19" y="1" width="1.03" height="1.03" />
<rect x="20" y="1" width="1.03" height="1.03" />
<rect x="13" y="2" width="1.03" height="1.03" />
<rect x="14" y="2" width="1.03" height="1.03" />
<rect x="15" y="2" width="1.03" height="1.03" />
<rect x="16" y="2" width="1.03" height="1.03" />
<rect x="17" y="2" width="1.03" height="1.03" />
<rect x="18" y="2" width="1.03" height="1.03" />
<rect x="19" y="2" width="1.03" height="1.03" />
<rect x="20" y="2" width="1.03" height="1.03" />
<rect x="21" y="2" width="1.03" height="1.03" />
<rect x="13" y="3" width="1.03" height="1.03" />
<rect x="14" y="3" width="1.03" height="1.03" />
<rect x="16" y="3" width="1.03" height="1.03" />
<rect x="17" y="3" width="1.03" height="1.03" />
<rect x="18" y="3" width="1.03" height="1.03" />
<rect x="20" y="3" width="1.03" height="1.03" />
<rect x="21" y="3" width="1.03" height="1.03" />
<rect x="13" y="4" width="1.03" height="1.03" />
<rect x="14" y="4" width="1.03" height="1.03" />
<rect x="15" y="4" width="1.03" height="1.03" />
<rect x="16" y="4" width="1.03" height="1.03" />
<rect x="17" y="4" width="1.03" height="1.03" />
<rect x="18" y="4" width="1.03" height="1.03" />
<rect x="19" y="4" width="1.03" height="1.03" />
<rect x="20" y="4" width="1.03" height="1.03" />
<rect x="21" y="4" width="1.03" height="1.03" />
<rect x="13" y="5" width="1.03" height="1.03" />
<rect x="14" y="5" width="1.03" height="1.03" />
<rect x="15" y="5" width="1.03" height="1.03" />
<rect x="16" y="5" width="1.03" height="1.03" />
<rect x="17" y="5" width="1.03" height="1.03" />
<rect x="18" y="5" width="1.03" height="1.03" />
<rect x="19" y="5" width="1.03" height="1.03" />
<rect x="20" y="5" width="1.03" height="1.03" />
<rect x="21" y="5" width="1.03" height="1.03" />
<rect x="13" y="6" width="1.03" height="1.03" />
<rect x="14" y="6" width="1.03" height="1.03" />
<rect x="15" y="6" width="1.03" height="1.03" />
<rect x="16" y="6" width="1.03" height="1.03" />
<rect x="13" y="7" width="1.03" height="1.03" />
<rect x="14" y="7" width="1.03" height="1.03" />
<rect x="15" y="7" width="1.03" height="1.03" />
<rect x="16" y="7" width="1.03" height="1.03" />
<rect x="17" y="7" width="1.03" height="1.03" />
<rect x="18" y="7" width="1.03" height="1.03" />
<rect x="4" y="8" width="1.03" height="1.03" />
<rect x="12" y="8" width="1.03" height="1.03" />
<rect x="13" y="8" width="1.03" height="1.03" />
<rect x="14" y="8" width="1.03" height="1.03" />
<rect x="15" y="8" width="1.03" height="1.03" />
<rect x="16" y="8" width="1.03" height="1.03" />
<rect x="3" y="9" width="1.03" height="1.03" />
<rect x="4" y="9" width="1.03" height="1.03" />
<rect x="11" y="9" width="1.03" height="1.03" />
<rect x="12" y="9" width="1.03" height="1.03" />
<rect x="13" y="9" width="1.03" height="1.03" />
<rect x="14" y="9" width="1.03" height="1.03" />
<rect x="15" y="9" width="1.03" height="1.03" />
<rect x="16" y="9" width="1.03" height="1.03" />
<rect x="17" y="9" width="1.03" height="1.03" />
<rect x="2" y="10" width="1.03" height="1.03" />
<rect x="3" y="10" width="1.03" height="1.03" />
<rect x="4" y="10" width="1.03" height="1.03" />
<rect x="10" y="10" width="1.03" height="1.03" />
<rect x="11" y="10" width="1.03" height="1.03" />
<rect x="12" y="10" width="1.03" height="1.03" />
<rect x="13" y="10" width="1.03" height="1.03" />
<rect x="14" y="10" width="1.03" height="1.03" />
<rect x="15" y="10" width="1.03" height="1.03" />
<rect x="16" y="10" width="1.03" height="1.03" />
<rect x="17" y="10" width="1.03" height="1.03" />
<rect x="18" y="10" width="1.03" height="1.03" />
<rect x="1" y="11" width="1.03" height="1.03" />
<rect x="2" y="11" width="1.03" height="1.03" />
<rect x="3" y="11" width="1.03" height="1.03" />
<rect x="4" y="11" width="1.03" height="1.03" />
<rect x="9" y="11" width="1.03" height="1.03" />
<rect x="10" y="11" width="1.03" height="1.03" />
<rect x="11" y="11" width="1.03" height="1.03" />
<rect x="12" y="11" width="1.03" height="1.03" />
<rect x="13" y="11" width="1.03" height="1.03" />
<rect x="14" y="11" width="1.03" height="1.03" />
<rect x="15" y="11" width="1.03" height="1.03" />
<rect x="16" y="11" width="1.03" height="1.03" />
<rect x="17" y="11" width="1.03" height="1.03" />
<rect x="18" y="11" width="1.03" height="1.03" />
<rect x="1" y="12" width="1.03" height="1.03" />
<rect x="2" y="12" width="1.03" height="1.03" />
<rect x="3" y="12" width="1.03" height="1.03" />
<rect x="4" y="12" width="1.03" height="1.03" />
<rect x="9" y="12" width="1.03" height="1.03" />
<rect x="10" y="12" width="1.03" height="1.03" />
<rect x="11" y="12" width="1.03" height="1.03" />
<rect x="12" y="12" width="1.03" height="1.03" />
<rect x="13" y="12" width="1.03" height="1.03" />
<rect x="17" y="12" width="1.03" height="1.03" />
<rect x="18" y="12" width="1.03" height="1.03" />
<rect x="1" y="13" width="1.03" height="1.03" />
<rect x="2" y="13" width="1.03" height="1.03" />
<rect x="3" y="13" width="1.03" height="1.03" />
<rect x="4" y="13" width="1.03" height="1.03" />
<rect x="5" y="13" width="1.03" height="1.03" />
<rect x="6" y="13" width="1.03" height="1.03" />
<rect x="7" y="13" width="1.03" height="1.03" />
<rect x="8" y="13" width="1.03" height="1.03" />
<rect x="9" y="13" width="1.03" height="1.03" />
<rect x="10" y="13" width="1.03" height="1.03" />
<rect x="11" y="13" width="1.03" height="1.03" />
<rect x="12" y="13" width="1.03" height="1.03" />
<rect x="13" y="13" width="1.03" height="1.03" />
<rect x="14" y="13" width="1.03" height="1.03" />
<rect x="15" y="13" width="1.03" height="1.03" />
<rect x="16" y="13" width="1.03" height="1.03" />
<rect x="17" y="13" width="1.03" height="1.03" />
<rect x="18" y="13" width="1.03" height="1.03" />
<rect x="2" y="14" width="1.03" height="1.03" />
<rect x="3" y="14" width="1.03" height="1.03" />
<rect x="4" y="14" width="1.03" height="1.03" />
<rect x="5" y="14" width="1.03" height="1.03" />
<rect x="6" y="14" width="1.03" height="1.03" />
<rect x="7" y="14" width="1.03" height="1.03" />
<rect x="8" y="14" width="1.03" height="1.03" />
<rect x="9" y="14" width="1.03" height="1.03" />
<rect x="10" y="14" width="1.03" height="1.03" />
<rect x="11" y="14" width="1.03" height="1.03" />
<rect x="12" y="14" width="1.03" height="1.03" />
<rect x="13" y="14" width="1.03" height="1.03" />
<rect x="14" y="14" width="1.03" height="1.03" />
<rect x="15" y="14" width="1.03" height="1.03" />
<rect x="16" y="14" width="1.03" height="1.03" />
<rect x="17" y="14" width="1.03" height="1.03" />
<rect x="3" y="15" width="1.03" height="1.03" />
<rect x="4" y="15" width="1.03" height="1.03" />
<rect x="5" y="15" width="1.03" height="1.03" />
<rect x="6" y="15" width="1.03" height="1.03" />
<rect x="7" y="15" width="1.03" height="1.03" />
<rect x="8" y="15" width="1.03" height="1.03" />
<rect x="9" y="15" width="1.03" height="1.03" />
<rect x="10" y="15" width="1.03" height="1.03" />
<rect x="11" y="15" width="1.03" height="1.03" />
<rect x="12" y="15" width="1.03" height="1.03" />
<rect x="13" y="15" width="1.03" height="1.03" />
<rect x="14" y="15" width="1.03" height="1.03" />
<rect x="15" y="15" width="1.03" height="1.03" />
<rect x="16" y="15" width="1.03" height="1.03" />
<rect x="4" y="16" width="1.03" height="1.03" />
<rect x="5" y="16" width="1.03" height="1.03" />
<rect x="6" y="16" width="1.03" height="1.03" />
<rect x="7" y="16" width="1.03" height="1.03" />
<rect x="8" y="16" width="1.03" height="1.03" />
<rect x="9" y="16" width="1.03" height="1.03" />
<rect x="10" y="16" width="1.03" height="1.03" />
<rect x="11" y="16" width="1.03" height="1.03" />
<rect x="12" y="16" width="1.03" height="1.03" />
<rect x="13" y="16" width="1.03" height="1.03" />
<rect x="14" y="16" width="1.03" height="1.03" />
<rect x="5" y="17" width="1.03" height="1.03" />
<rect x="6" y="17" width="1.03" height="1.03" />
<rect x="7" y="17" width="1.03" height="1.03" />
<rect x="8" y="17" width="1.03" height="1.03" />
<rect x="9" y="17" width="1.03" height="1.03" />
<rect x="10" y="17" width="1.03" height="1.03" />
<rect x="11" y="17" width="1.03" height="1.03" />
<rect x="12" y="17" width="1.03" height="1.03" />
<rect x="13" y="17" width="1.03" height="1.03" />
<rect x="6" y="18" width="1.03" height="1.03" />
<rect x="7" y="18" width="1.03" height="1.03" />
<rect x="8" y="18" width="1.03" height="1.03" />
<rect x="9" y="18" width="1.03" height="1.03" />
<rect x="6" y="19" width="1.03" height="1.03" />
<rect x="9" y="19" width="1.03" height="1.03" />
<rect x="6" y="20" width="1.03" height="1.03" />
<rect x="9" y="20" width="1.03" height="1.03" />
<rect x="5" y="21" width="1.03" height="1.03" />
<rect x="6" y="21" width="1.03" height="1.03" />
<rect x="9" y="21" width="1.03" height="1.03" />
<rect x="10" y="21" width="1.03" height="1.03" />

  </g>

  <!-- Cute Eyes Overwrite -->
  <rect x="295" y="86" width="30" height="30" fill="#FFF" />
  <rect x="300" y="90" width="15" height="15" fill="#000" />
  <rect x="305" y="95" width="5" height="5" fill="#FFF" />
  
  <rect x="156" y="274" width="16" height="11" fill="#FFB6C1" opacity="0.8" />
</svg>